<svg width="200" height="200" viewBox="0 0 200 200" fill="none" xmlns="http://www.w3.org/2000/svg">
<path d="M99.9281 11C117.329 11 134.35 16.093 148.887 25.6499C163.424 35.2069 174.841 48.8092 181.727 64.7768C188.614 80.7445 190.669 98.378 187.639 115.5C184.608 132.621 176.625 148.481 164.675 161.12C152.725 173.759 137.331 182.623 120.395 186.618C103.46 190.614 85.7238 189.565 69.378 183.601C53.0322 177.638 38.7927 167.021 28.418 153.062C18.0434 139.103 11.9881 122.413 11 105.053" stroke="#0CBD68" stroke-width="12" stroke-linecap="round"/>
<path d="M72.6853 115.64C71.7253 115.64 70.7253 115.52 69.6853 115.28C68.6453 115.04 67.672 114.667 66.7653 114.16C65.8586 113.627 65.1253 112.92 64.5653 112.04C64.0053 111.16 63.7253 110.08 63.7253 108.8C63.7253 107.707 63.992 106.693 64.5253 105.76C65.0853 104.8 65.7786 103.92 66.6053 103.12C67.4586 102.32 68.352 101.64 69.2853 101.08C67.4186 99.96 66.0986 98.76 65.3253 97.48C64.5786 96.1733 64.2053 94.9733 64.2053 93.88C64.2053 92.5733 64.472 91.4533 65.0053 90.52C65.5386 89.56 66.2453 88.7733 67.1253 88.16C68.0053 87.5467 68.952 87.0933 69.9653 86.8C71.0053 86.5067 72.0453 86.36 73.0853 86.36C74.472 86.36 75.7786 86.6133 77.0053 87.12C78.232 87.6267 79.232 88.3867 80.0053 89.4C80.7786 90.3867 81.1653 91.6 81.1653 93.04C81.1653 94 80.9253 94.9067 80.4453 95.76C79.9653 96.5867 79.3386 97.3333 78.5653 98C77.8186 98.6667 77.032 99.2533 76.2053 99.76C77.512 100.533 78.6186 101.373 79.5253 102.28C80.4586 103.187 81.1653 104.133 81.6453 105.12C82.152 106.107 82.4053 107.133 82.4053 108.2C82.4053 109.907 81.952 111.32 81.0453 112.44C80.1386 113.533 78.9386 114.347 77.4453 114.88C75.9786 115.387 74.392 115.64 72.6853 115.64ZM72.7253 113.24C74.1653 113.267 75.2853 112.88 76.0853 112.08C76.8853 111.28 77.2853 110.253 77.2853 109C77.2853 107.88 76.872 106.747 76.0453 105.6C75.2186 104.427 73.7386 103.333 71.6053 102.32C70.4053 103.227 69.5253 104.24 68.9653 105.36C68.432 106.453 68.1386 107.427 68.0853 108.28C68.032 109.693 68.432 110.867 69.2853 111.8C70.1653 112.733 71.312 113.213 72.7253 113.24ZM74.0053 98.4C74.9653 97.7067 75.7386 96.8933 76.3253 95.96C76.912 95.0267 77.2186 94.1467 77.2453 93.32C77.2986 91.8533 76.9386 90.7333 76.1653 89.96C75.4186 89.16 74.472 88.76 73.3253 88.76C72.472 88.7333 71.7253 88.92 71.0853 89.32C70.472 89.6933 69.992 90.1867 69.6453 90.8C69.3253 91.4133 69.1653 92.0933 69.1653 92.84C69.1653 94.0133 69.632 95.1067 70.5653 96.12C71.5253 97.1333 72.672 97.8933 74.0053 98.4ZM92.1388 115.64C91.4188 115.613 90.9121 115.387 90.6188 114.96C90.3254 114.533 90.1788 114.053 90.1788 113.52C90.1788 112.96 90.3121 112.253 90.5788 111.4C90.8721 110.52 91.2188 109.573 91.6188 108.56C92.0188 107.547 92.4188 106.56 92.8188 105.6C93.2988 104.48 93.8454 103.16 94.4588 101.64C95.0988 100.12 95.8054 98.44 96.5788 96.6C97.3788 94.7333 98.2454 92.7333 99.1788 90.6L90.0588 90.56C89.0988 90.56 88.3254 90.7867 87.7388 91.24C87.1788 91.6667 86.8988 92.4267 86.8988 93.52H84.8988L85.0988 87H102.059V90.32C101.125 92.2133 100.325 94.04 99.6588 95.8C98.9921 97.56 98.3921 99.3333 97.8588 101.12C97.3254 102.88 96.8188 104.72 96.3388 106.64C95.8588 108.533 95.3388 110.587 94.7787 112.8C94.5921 113.52 94.2854 114.187 93.8588 114.8C93.4588 115.387 92.8854 115.667 92.1388 115.64ZM110.212 115.68L107.892 113.6L130.612 86.36L133.172 88.64L110.212 115.68ZM111.892 101.88C110.265 101.88 108.892 101.52 107.772 100.8C106.678 100.053 105.838 99.1067 105.252 97.96C104.692 96.7867 104.412 95.5467 104.412 94.24C104.412 92.9867 104.705 91.7733 105.292 90.6C105.878 89.4 106.718 88.4 107.812 87.6C108.932 86.8 110.265 86.3867 111.812 86.36C113.465 86.3333 114.852 86.6933 115.972 87.44C117.092 88.1867 117.932 89.1467 118.492 90.32C119.052 91.4667 119.332 92.6533 119.332 93.88C119.332 95.2667 118.998 96.5733 118.332 97.8C117.665 99.0267 116.772 100.013 115.652 100.76C114.532 101.507 113.278 101.88 111.892 101.88ZM111.932 99.2C112.705 99.2 113.305 98.96 113.732 98.48C114.158 97.9733 114.465 97.36 114.652 96.64C114.838 95.8933 114.932 95.1733 114.932 94.48C114.932 93.92 114.878 93.32 114.772 92.68C114.692 92.0133 114.532 91.4 114.292 90.84C114.052 90.2533 113.732 89.7867 113.332 89.44C112.932 89.0667 112.438 88.88 111.852 88.88C111.265 88.88 110.772 89.0533 110.372 89.4C109.998 89.72 109.692 90.1333 109.452 90.64C109.238 91.12 109.078 91.64 108.972 92.2C108.892 92.7333 108.852 93.2133 108.852 93.64C108.852 94.1733 108.892 94.7733 108.972 95.44C109.078 96.08 109.238 96.68 109.452 97.24C109.665 97.8 109.972 98.2667 110.372 98.64C110.772 99.0133 111.292 99.2 111.932 99.2ZM129.612 115.64C127.985 115.64 126.612 115.28 125.492 114.56C124.372 113.84 123.532 112.893 122.972 111.72C122.412 110.547 122.132 109.32 122.132 108.04C122.132 106.76 122.438 105.52 123.052 104.32C123.665 103.12 124.532 102.133 125.652 101.36C126.772 100.56 128.078 100.147 129.572 100.12C131.198 100.12 132.558 100.493 133.652 101.24C134.745 101.96 135.572 102.907 136.132 104.08C136.718 105.253 137.012 106.453 137.012 107.68C137.012 109.013 136.692 110.293 136.052 111.52C135.438 112.72 134.572 113.707 133.452 114.48C132.358 115.253 131.078 115.64 129.612 115.64ZM129.652 113.04C130.238 113.04 130.718 112.893 131.092 112.6C131.492 112.28 131.798 111.88 132.012 111.4C132.252 110.893 132.412 110.373 132.492 109.84C132.572 109.28 132.612 108.773 132.612 108.32C132.612 107.733 132.558 107.12 132.452 106.48C132.372 105.84 132.212 105.24 131.972 104.68C131.758 104.093 131.452 103.627 131.052 103.28C130.652 102.907 130.158 102.72 129.572 102.72C128.798 102.72 128.185 102.987 127.732 103.52C127.305 104.053 126.998 104.693 126.812 105.44C126.625 106.16 126.532 106.827 126.532 107.44C126.532 108 126.572 108.6 126.652 109.24C126.758 109.88 126.932 110.493 127.172 111.08C127.412 111.64 127.732 112.107 128.132 112.48C128.532 112.853 129.038 113.04 129.652 113.04Z" fill="black"/>
</svg>
