<svg width="60" height="20" viewBox="0 0 60 20" fill="none" xmlns="http://www.w3.org/2000/svg">
<path d="M5.54003 5.07926C5.71276 4.67397 6.28724 4.67397 6.45997 5.07926L7.49431 7.50621C7.56659 7.67581 7.72634 7.79187 7.90997 7.80821L10.5378 8.04195C10.9766 8.08099 11.1541 8.62735 10.822 8.91686L8.8335 10.6505C8.69454 10.7717 8.63352 10.9595 8.67473 11.1392L9.26446 13.7106C9.36294 14.14 8.89818 14.4777 8.52022 14.2513L6.2569 12.8959C6.09873 12.8011 5.90127 12.8011 5.7431 12.8959L3.47978 14.2513C3.10182 14.4777 2.63706 14.14 2.73554 13.7106L3.32527 11.1392C3.36648 10.9595 3.30546 10.7717 3.1665 10.6505L1.17796 8.91686C0.845884 8.62735 1.02341 8.08099 1.46224 8.04195L4.09003 7.80821C4.27366 7.79187 4.43341 7.67581 4.50569 7.50621L5.54003 5.07926Z" fill="#FF7A00"/>
<path d="M17.54 5.07926C17.7128 4.67397 18.2872 4.67397 18.46 5.07926L19.4943 7.50621C19.5666 7.67581 19.7263 7.79187 19.91 7.80821L22.5378 8.04195C22.9766 8.08099 23.1541 8.62735 22.822 8.91686L20.8335 10.6505C20.6945 10.7717 20.6335 10.9595 20.6747 11.1392L21.2645 13.7106C21.3629 14.14 20.8982 14.4777 20.5202 14.2513L18.2569 12.8959C18.0987 12.8011 17.9013 12.8011 17.7431 12.8959L15.4798 14.2513C15.1018 14.4777 14.6371 14.14 14.7355 13.7106L15.3253 11.1392C15.3665 10.9595 15.3055 10.7717 15.1665 10.6505L13.178 8.91686C12.8459 8.62735 13.0234 8.08099 13.4622 8.04195L16.09 7.80821C16.2737 7.79187 16.4334 7.67581 16.5057 7.50621L17.54 5.07926Z" fill="#FF7A00"/>
<path d="M29.54 5.07926C29.7128 4.67397 30.2872 4.67397 30.46 5.07926L31.4943 7.50621C31.5666 7.67581 31.7263 7.79187 31.91 7.80821L34.5378 8.04195C34.9766 8.08099 35.1541 8.62735 34.822 8.91686L32.8335 10.6505C32.6945 10.7717 32.6335 10.9595 32.6747 11.1392L33.2645 13.7106C33.3629 14.14 32.8982 14.4777 32.5202 14.2513L30.2569 12.8959C30.0987 12.8011 29.9013 12.8011 29.7431 12.8959L27.4798 14.2513C27.1018 14.4777 26.6371 14.14 26.7355 13.7106L27.3253 11.1392C27.3665 10.9595 27.3055 10.7717 27.1665 10.6505L25.178 8.91686C24.8459 8.62735 25.0234 8.08099 25.4622 8.04195L28.09 7.80821C28.2737 7.79187 28.4334 7.67581 28.5057 7.50621L29.54 5.07926Z" fill="#FF7A00"/>
<path d="M41.54 5.07926C41.7128 4.67397 42.2872 4.67397 42.46 5.07926L43.4943 7.50621C43.5666 7.67581 43.7263 7.79187 43.91 7.80821L46.5378 8.04195C46.9766 8.08099 47.1541 8.62735 46.822 8.91686L44.8335 10.6505C44.6945 10.7717 44.6335 10.9595 44.6747 11.1392L45.2645 13.7106C45.3629 14.14 44.8982 14.4777 44.5202 14.2513L42.2569 12.8959C42.0987 12.8011 41.9013 12.8011 41.7431 12.8959L39.4798 14.2513C39.1018 14.4777 38.6371 14.14 38.7355 13.7106L39.3253 11.1392C39.3665 10.9595 39.3055 10.7717 39.1665 10.6505L37.178 8.91686C36.8459 8.62735 37.0234 8.08099 37.4622 8.04195L40.09 7.80821C40.2737 7.79187 40.4334 7.67581 40.5057 7.50621L41.54 5.07926Z" fill="#FF7A00"/>
<path d="M53.54 5.07926C53.7128 4.67397 54.2872 4.67397 54.46 5.07926L55.4943 7.50621C55.5666 7.67581 55.7263 7.79187 55.91 7.80821L58.5378 8.04195C58.9766 8.08099 59.1541 8.62735 58.822 8.91686L56.8335 10.6505C56.6945 10.7717 56.6335 10.9595 56.6747 11.1392L57.2645 13.7106C57.3629 14.14 56.8982 14.4777 56.5202 14.2513L54.2569 12.8959C54.0987 12.8011 53.9013 12.8011 53.7431 12.8959L51.4798 14.2513C51.1018 14.4777 50.6371 14.14 50.7355 13.7106L51.3253 11.1392C51.3665 10.9595 51.3055 10.7717 51.1665 10.6505L49.178 8.91686C48.8459 8.62735 49.0234 8.08099 49.4622 8.04195L52.09 7.80821C52.2737 7.79187 52.4334 7.67581 52.5057 7.50621L53.54 5.07926Z" fill="#FF7A00"/>
</svg>
