<svg width="25" height="12" viewBox="0 0 25 12" fill="none" xmlns="http://www.w3.org/2000/svg">
<path opacity="0.4" fill-rule="evenodd" clip-rule="evenodd" d="M2.93913 1.33334H19.6058C20.5263 1.33334 21.2725 2.07953 21.2725 3.00001V9.00001C21.2725 9.92049 20.5263 10.6667 19.6058 10.6667H2.93913C2.01865 10.6667 1.27246 9.92049 1.27246 9.00001V3.00001C1.27246 2.07953 2.01865 1.33334 2.93913 1.33334ZM0.272461 3.00001C0.272461 1.52725 1.46637 0.333344 2.93913 0.333344H19.6058C21.0786 0.333344 22.2725 1.52725 22.2725 3.00001V9.00001C22.2725 10.4728 21.0786 11.6667 19.6058 11.6667H2.93913C1.46637 11.6667 0.272461 10.4728 0.272461 9.00001V3.00001ZM24.6004 6.00006C24.6004 6.87319 24.0771 7.66128 23.2724 8.00006V4.00006C24.0771 4.33884 24.6004 5.12693 24.6004 6.00006Z" fill="black"/>
<rect x="2.27246" y="2.33334" width="18" height="7.33333" rx="1.33333" fill="black"/>
</svg>
