<svg width="17" height="12" viewBox="0 0 17 12" fill="none" xmlns="http://www.w3.org/2000/svg">
<path fill-rule="evenodd" clip-rule="evenodd" d="M15.9999 0.666626H14.9999C14.4477 0.666626 13.9999 1.11434 13.9999 1.66663V10.3333C13.9999 10.8856 14.4477 11.3333 14.9999 11.3333H15.9999C16.5522 11.3333 16.9999 10.8856 16.9999 10.3333V1.66663C16.9999 1.11434 16.5522 0.666626 15.9999 0.666626ZM10.3332 2.99993H11.3332C11.8855 2.99993 12.3332 3.44764 12.3332 3.99993V10.3333C12.3332 10.8855 11.8855 11.3333 11.3332 11.3333H10.3332C9.78093 11.3333 9.33321 10.8855 9.33321 10.3333V3.99993C9.33321 3.44764 9.78093 2.99993 10.3332 2.99993ZM6.66673 5.33342H5.66673C5.11444 5.33342 4.66673 5.78113 4.66673 6.33342V10.3334C4.66673 10.8857 5.11444 11.3334 5.66673 11.3334H6.66673C7.21901 11.3334 7.66673 10.8857 7.66673 10.3334V6.33342C7.66673 5.78113 7.21901 5.33342 6.66673 5.33342ZM2 7.33343H1C0.447715 7.33343 0 7.78114 0 8.33343V10.3334C0 10.8857 0.447715 11.3334 1 11.3334H2C2.55228 11.3334 3 10.8857 3 10.3334V8.33343C3 7.78114 2.55228 7.33343 2 7.33343Z" fill="black"/>
</svg>
