<svg width="16" height="12" viewBox="0 0 16 12" fill="none" xmlns="http://www.w3.org/2000/svg">
<path fill-rule="evenodd" clip-rule="evenodd" d="M7.63661 2.7946C9.8525 2.7947 11.9837 3.64613 13.5896 5.17293C13.7105 5.29081 13.9038 5.28932 14.0229 5.1696L15.1789 4.00293C15.2392 3.94221 15.2729 3.85996 15.2724 3.77438C15.2719 3.6888 15.2373 3.60695 15.1763 3.54693C10.9612 -0.492614 4.31137 -0.492614 0.0962725 3.54693C0.0352139 3.6069 0.00057 3.68873 6.97078e-06 3.77431C-0.000556058 3.85989 0.0330082 3.94217 0.0932725 4.00293L1.24961 5.1696C1.36863 5.2895 1.56208 5.29099 1.68294 5.17293C3.28909 3.64603 5.4205 2.79459 7.63661 2.7946ZM7.63664 6.59016C8.85413 6.59009 10.0282 7.04262 10.9306 7.85983C11.0527 7.97581 11.245 7.97329 11.364 7.85416L12.5186 6.68749C12.5794 6.6263 12.6132 6.54328 12.6123 6.45702C12.6114 6.37075 12.576 6.28844 12.514 6.22849C9.76577 3.67211 5.50984 3.67211 2.76164 6.22849C2.69956 6.28844 2.66414 6.37079 2.66333 6.45709C2.66251 6.54338 2.69637 6.62639 2.7573 6.68749L3.91164 7.85416C4.03063 7.97329 4.22291 7.97581 4.34497 7.85983C5.24684 7.04316 6.41995 6.59067 7.63664 6.59016ZM9.94974 9.14396C9.9515 9.23046 9.9175 9.31386 9.85574 9.37447L7.85841 11.3901C7.79986 11.4494 7.72003 11.4827 7.63674 11.4827C7.55345 11.4827 7.47363 11.4494 7.41508 11.3901L5.41741 9.37447C5.3557 9.31382 5.32175 9.23039 5.32358 9.14388C5.32541 9.05738 5.36286 8.97546 5.42708 8.91747C6.70265 7.83859 8.57084 7.83859 9.84641 8.91747C9.91059 8.97551 9.94797 9.05745 9.94974 9.14396Z" fill="black"/>
</svg>
